<svg xmlns="http://www.w3.org/2000/svg" width="131.27" height="38.04"><path fill="red" d="M9.35 21.43v8.68h2.44V7.45H8.15c-3.59 0-6.6 2.38-6.6 7.13 0 3.39 1.33 5.23 3.33 6.25L.63 30.11h2.83l3.86-8.68zm0-2.03h-1.3c-2.12 0-3.87-1.17-3.87-4.82 0-3.77 1.91-5.07 3.87-5.07h1.3z"/><path d="M36.26 28.09H35V14.14h-7.42v1.36c0 4.25-.16 9.19-1.62 12.59h-.98v5.16h2.22v-3.14h6.85v3.14h2.21zm10.75.95l-.57-1.9c-.63.44-1.74 1.07-3.14 1.07-1.96 0-2.98-1.9-2.98-5.51h6.66v-1.37c0-5.42-1.74-7.41-4.41-7.41-3.39 0-4.82 3.74-4.82 8.87 0 4.92 2.03 7.55 5.33 7.55 1.59 0 2.92-.51 3.93-1.3zm-25.9-14.9v6.78h-3.68v-6.78h-2.47v15.97h2.47v-7.16h3.68v7.16h2.44V14.14zM56.2 30.11h2.7l-4.53-8.46 3.96-7.51h-2.51l-3.83 7.38v-7.38h-2.47v15.97h2.47v-7.95zm8.5.23c1.46 0 2.47-.48 3.33-1.21l-.57-1.84c-.57.51-1.49.99-2.7.99-1.99 0-2.95-2.29-2.95-6.28 0-4.03 1.27-6.02 3.05-6.02 1.01 0 1.96.54 2.63 1.11l.35-2.35c-.7-.44-1.52-.82-2.95-.82-3.74 0-5.67 3.2-5.67 8.21 0 5.45 2.06 8.21 5.48 8.21zm-32.14-2.25h-4.25c1.33-3.4 1.49-8.31 1.49-11.67v-.28h2.76zm10.01-12.14c1.43 0 1.87 1.99 1.87 4.72h-4.09c.16-2.85.7-4.72 2.22-4.72zm41.4 14.16h1.59V7.45h-9.92v22.66h1.58V8.75h6.75zm9.23.32c2.76 0 4.88-3.1 4.88-8.4 0-5.48-2.12-8.21-4.88-8.21s-4.88 3.08-4.88 8.4c0 5.45 2.12 8.21 4.88 8.21zm0-1.2c-1.87 0-3.39-2.13-3.39-7.1 0-4.85 1.52-7.07 3.39-7.07s3.39 2.06 3.39 7.07c0 4.82-1.52 7.1-3.39 7.1zm15.34.88V14.14h-1.49v7.19s-.95 1.24-2.69 1.24c-1.49 0-2.41-.92-2.41-3.2v-5.23h-1.49v5.2c0 3.01 1.42 4.5 3.64 4.5 1.9 0 2.95-1.02 2.95-1.02v7.29zm11.29-14.74v-1.23h-8.88v1.23h3.71v14.74h1.49V15.37zm5.23 13.86c-1.53 0-2.51-1.3-2.51-3.55 0-2.79 1.27-4 3.9-4h1.71v4.41c-.57 1.71-1.61 3.14-3.1 3.14zm3.55.88h1.36c-.19-.6-.35-1.83-.35-2.94v-8.72c0-3.17-1.49-4.63-4.12-4.63-1.81 0-3.14.79-3.77 1.62l.41 1.42c.76-1.11 2-1.74 3.36-1.74 1.74 0 2.66 1.05 2.66 3.49v1.99h-1.74c-3.46 0-5.33 1.78-5.33 5.2 0 2.92 1.49 4.63 3.65 4.63 1.58 0 2.73-.95 3.49-2.47.09 1.14.25 1.74.38 2.15z"/></svg>