<svg xmlns="http://www.w3.org/2000/svg" width="47.718" height="26.4"><path fill="red" d="M6.49 14.87v6.03h1.69V5.17H5.65c-2.48 0-4.57 1.65-4.57 4.95 0 2.35.92 3.63 2.31 4.33L.44 20.9H2.4l2.68-6.03zm0-1.41h-.9c-1.48 0-2.69-.81-2.69-3.34C2.9 7.5 4.22 6.6 5.59 6.6h.9z"/><path d="M25.17 19.49h-.88V9.81h-5.15v.95c0 2.95-.11 6.38-1.12 8.73h-.68v3.59h1.54V20.9h4.75v2.18h1.54zm7.46.66l-.4-1.32c-.44.31-1.21.75-2.18.75-1.36 0-2.07-1.32-2.07-3.83h4.62v-.94c0-3.77-1.21-5.15-3.05-5.15-2.36 0-3.35 2.59-3.35 6.16 0 3.41 1.41 5.23 3.7 5.23 1.1 0 2.02-.35 2.73-.9zM14.65 9.81v4.71H12.1V9.81h-1.72V20.9h1.72v-4.97h2.55v4.97h1.7V9.81zM39.01 20.9h1.87l-3.15-5.87 2.75-5.22h-1.74l-2.66 5.13V9.81h-1.72V20.9h1.72v-5.52zm5.89.15c1.01 0 1.72-.33 2.31-.83l-.39-1.28c-.4.35-1.04.68-1.87.68-1.39 0-2.05-1.58-2.05-4.35 0-2.8.88-4.18 2.11-4.18.71 0 1.37.37 1.83.77l.24-1.63c-.48-.31-1.06-.57-2.05-.57-2.59 0-3.93 2.22-3.93 5.7 0 3.78 1.43 5.69 3.8 5.69zm-22.31-1.56h-2.94c.92-2.35 1.03-5.76 1.03-8.09v-.2h1.91zm6.96-8.42c.99 0 1.29 1.38 1.29 3.27h-2.83c.11-1.98.48-3.27 1.54-3.27z"/></svg>