<svg xmlns="http://www.w3.org/2000/svg" width="76.104" height="50.4"><path fill="#fff" d="M13.44 39.9h2.1V9.87H2.39V39.9h2.1V11.59h8.95zm12.22.42c3.66 0 6.47-4.12 6.47-11.13 0-7.27-2.81-10.88-6.47-10.88-3.65 0-6.47 4.08-6.47 11.13 0 7.23 2.82 10.88 6.47 10.88zm0-1.6c-2.48 0-4.49-2.81-4.49-9.4 0-6.43 2.01-9.37 4.49-9.37 2.48 0 4.5 2.73 4.5 9.37 0 6.38-2.02 9.4-4.5 9.4zm20.33 1.18V18.73h-1.97v9.54s-1.26 1.63-3.57 1.63c-1.98 0-3.2-1.21-3.2-4.24v-6.93h-1.97v6.89c0 3.99 1.89 5.96 4.83 5.96 2.52 0 3.91-1.34 3.91-1.34v9.66zm14.95-19.53v-1.64H49.18v1.64h4.92V39.9h1.97V20.37zm6.93 18.35c-2.01 0-3.32-1.72-3.32-4.7 0-3.7 1.68-5.29 5.17-5.29h2.27v5.84c-.76 2.26-2.14 4.15-4.12 4.15zm4.71 1.18h1.8c-.25-.8-.46-2.44-.46-3.91V24.44c0-4.2-1.97-6.13-5.46-6.13-2.39 0-4.16 1.05-5 2.14l.55 1.89c1.01-1.47 2.64-2.31 4.45-2.31 2.31 0 3.53 1.39 3.53 4.62v2.65h-2.31c-4.58 0-7.06 2.35-7.06 6.89 0 3.86 1.98 6.13 4.83 6.13 2.1 0 3.61-1.26 4.62-3.28.13 1.52.34 2.31.51 2.86z"/></svg>