<svg xmlns="http://www.w3.org/2000/svg" width="97.818" height="50.4"><path fill="#fff" d="M12.39 28.39V39.9h3.23V9.87h-4.83c-4.74 0-8.73 3.15-8.73 9.45 0 4.49 1.76 6.93 4.41 8.27L.84 39.9h3.74L9.7 28.39zm0-2.69h-1.72c-2.82 0-5.13-1.55-5.13-6.38 0-5 2.52-6.72 5.13-6.72h1.72zm35.66 11.51h-1.68V18.73h-9.83v1.81c0 5.63-.21 12.18-2.14 16.67h-1.3v6.85h2.94V39.9h9.07v4.16h2.94zm14.24 1.26l-.76-2.52c-.84.59-2.31 1.43-4.16 1.43-2.6 0-3.95-2.52-3.95-7.31h8.82v-1.8c0-7.19-2.31-9.83-5.83-9.83-4.5 0-6.39 4.95-6.39 11.76 0 6.51 2.69 9.99 7.06 9.99 2.1 0 3.86-.67 5.21-1.72zM27.97 18.73v8.99H23.1v-8.99h-3.28V39.9h3.28v-9.49h4.87v9.49h3.24V18.73zm46.5 21.17h3.57l-6.01-11.21 5.25-9.96h-3.32l-5.08 9.79v-9.79H65.6V39.9h3.28V29.36zm11.25.29c1.93 0 3.28-.63 4.41-1.59l-.75-2.44c-.76.67-1.98 1.3-3.57 1.3-2.65 0-3.91-3.02-3.91-8.31 0-5.34 1.68-7.98 4.03-7.98 1.35 0 2.61.71 3.49 1.47l.46-3.11c-.92-.59-2.02-1.09-3.91-1.09-4.95 0-7.51 4.24-7.51 10.88 0 7.22 2.73 10.87 7.26 10.87zm-42.59-2.98h-5.62c1.76-4.49 1.97-11 1.97-15.45v-.38h3.65zm13.28-16.08c1.89 0 2.47 2.64 2.47 6.25h-5.41c.21-3.78.92-6.25 2.94-6.25z"/></svg>