<svg xmlns="http://www.w3.org/2000/svg" width="57.992" height="26.4"><path d="M11.11 16.1c0-3.1-1.61-4.51-3.87-4.51H5.87V6.07h4.29v-.9H4.77V20.9h2.36c2.26 0 3.98-1.43 3.98-4.8zm-3.87-3.6c1.69 0 2.77 1.18 2.77 3.65 0 2.75-1.12 3.85-2.88 3.85H5.87v-7.5zm8.95 7.78c-.99 0-1.6-.44-2.04-1.34v-6.2c.48-1.19 1.32-2.25 2.31-2.25 1.27 0 2.06 1.72 2.06 4.62 0 3.5-.92 5.17-2.33 5.17zm-.06.82c2.06 0 3.43-2 3.43-6.07 0-3.22-1.08-5.44-2.93-5.44-1.23 0-2.04.99-2.53 2.05l-.09-1.83h-.9v14.52h1.04v-4.2c.41.55 1.14.97 1.98.97zm7.59-.82c-1.06 0-1.74-.9-1.74-2.46 0-1.94.88-2.77 2.7-2.77h1.19v3.06c-.39 1.18-1.12 2.17-2.15 2.17zm2.46.62h.95c-.14-.42-.25-1.28-.25-2.05V12.8c0-2.2-1.03-3.21-2.86-3.21-1.25 0-2.17.55-2.61 1.12l.28.99c.53-.77 1.39-1.21 2.33-1.21 1.21 0 1.85.73 1.85 2.42v1.39h-1.21c-2.4 0-3.69 1.23-3.69 3.61 0 2.02 1.03 3.21 2.53 3.21 1.1 0 1.89-.66 2.42-1.72.06.8.17 1.21.26 1.5zm3.32 3.52c1.56 0 2.22-1.45 2.6-2.95l2.84-11.66h-.93l-1.71 7.24c-.2.81-.38 1.63-.53 2.51h-.07c-.11-.86-.26-1.67-.46-2.51l-1.76-7.24h-1.03l2.75 11.4-.09.33c-.33 1.23-.86 1.96-1.61 1.96-.28 0-.5-.05-.68-.09l.11.97c.15.02.33.04.57.04zm8.93-3.3c1.7 0 3.11-1.19 3.11-3.34 0-1.21-.6-2.29-1.98-2.8 1.21-.59 1.65-1.58 1.65-2.66 0-1.63-.93-2.73-2.67-2.73-1.18 0-2 .53-2.48 1.17l.26.99c.49-.68 1.21-1.26 2.22-1.26 1.08 0 1.68.73 1.68 1.85 0 1.52-.91 2.29-2.18 2.29h-.82v.84h.93c1.65 0 2.33.94 2.33 2.33 0 1.6-.92 2.42-2.07 2.42-1.52 0-2.26-1.19-2.26-1.19l-.36.86s.86 1.23 2.64 1.23zm5.39-5.59h5.02c.35-3.94-.88-5.94-2.79-5.94-1.87 0-3.24 2.14-3.24 5.77 0 3.63 1.08 5.76 3.43 5.76 1.76 0 2.6-1.25 2.6-1.25l-.33-.84s-.77 1.19-2.24 1.19c-1.61 0-2.4-1.65-2.45-4.69zm2.23-5.08c1.12 0 2 1.32 1.82 4.27h-4.02c.08-2.77 1.03-4.27 2.2-4.27zm7.83 9.83c-.99 0-1.61-.44-2.05-1.34v-6.2c.49-1.19 1.32-2.25 2.31-2.25 1.28 0 2.07 1.72 2.07 4.62 0 3.5-.92 5.17-2.33 5.17zm-.07.82c2.07 0 3.43-2 3.43-6.07 0-3.22-1.07-5.44-2.92-5.44-1.23 0-2.05.99-2.53 2.05l-.09-1.83h-.9v14.52h1.03v-4.2c.42.55 1.15.97 1.98.97z"/></svg>